bicep_curl
version=1
nRows=269
nColumns=3
inDegrees=yes

# SIMM Motion File Header:
name bicep_curl
datacolumns 3
datarows 269
otherdata 1
range 0.0000 0.2680
endheader
time	/jointset/r_shoulder/r_shoulder_elev/value	/jointset/r_elbow/r_elbow_flex/value
0.0000	0.0000	102.0600
0.0010	0.0000	101.9564
0.0020	0.0000	101.8536
0.0030	0.0000	101.7516
0.0040	0.0000	101.6505
0.0050	0.0000	101.5502
0.0060	0.0000	101.4507
0.0070	0.0000	101.3521
0.0080	0.0000	101.2543
0.0090	0.0000	101.1573
0.0100	0.0000	101.0612
0.0110	0.0000	100.9658
0.0120	0.0000	100.8714
0.0130	0.0000	100.7777
0.0140	0.0000	100.6849
0.0150	0.0000	100.5929
0.0160	0.0000	100.5018
0.0170	0.0000	100.4115
0.0180	0.0000	100.3220
0.0190	0.0000	100.2334
0.0200	0.0000	100.1455
0.0210	0.0000	100.0586
0.0220	0.0000	99.9724
0.0230	0.0000	99.8871
0.0240	0.0000	99.8026
0.0250	0.0000	99.7190
0.0260	0.0000	99.6361
0.0270	0.0000	99.5541
0.0280	0.0000	99.4730
0.0290	0.0000	99.3927
0.0300	0.0000	99.3132
0.0310	0.0000	99.2345
0.0320	0.0000	99.1567
0.0330	0.0000	99.0797
0.0340	0.0000	99.0035
0.0350	0.0000	98.9282
0.0360	0.0000	98.8537
0.0370	0.0000	98.7800
0.0380	0.0000	98.7072
0.0390	0.0000	98.6352
0.0400	0.0000	98.5640
0.0410	0.0000	98.4937
0.0420	0.0000	98.4242
0.0430	0.0000	98.3555
0.0440	0.0000	98.2877
0.0450	0.0000	98.2207
0.0460	0.0000	98.1545
0.0470	0.0000	98.0892
0.0480	0.0000	98.0247
0.0490	0.0000	97.9610
0.0500	0.0000	97.8981
0.0510	0.0000	97.8361
0.0520	0.0000	97.7749
0.0530	0.0000	97.7146
0.0540	0.0000	97.6551
0.0550	0.0000	97.5964
0.0560	0.0000	97.5385
0.0570	0.0000	97.4815
0.0580	0.0000	97.4253
0.0590	0.0000	97.3700
0.0600	0.0000	97.3155
0.0610	0.0000	97.2618
0.0620	0.0000	97.2089
0.0630	0.0000	97.1569
0.0640	0.0000	97.1057
0.0650	0.0000	97.0554
0.0660	0.0000	97.0058
0.0670	0.0000	96.9571
0.0680	0.0000	96.9093
0.0690	0.0000	96.8622
0.0700	0.0000	96.8160
0.0710	0.0000	96.7707
0.0720	0.0000	96.7262
0.0730	0.0000	96.6825
0.0740	0.0000	96.6396
0.0750	0.0000	96.5976
0.0760	0.0000	96.5563
0.0770	0.0000	96.5160
0.0780	0.0000	96.4764
0.0790	0.0000	96.4377
0.0800	0.0000	96.3999
0.0810	0.0000	96.3628
0.0820	0.0000	96.3266
0.0830	0.0000	96.2912
0.0840	0.0000	96.2567
0.0850	0.0000	96.2230
0.0860	0.0000	96.1901
0.0870	0.0000	96.1581
0.0880	0.0000	96.1268
0.0890	0.0000	96.0965
0.0900	0.0000	96.0669
0.0910	0.0000	96.0382
0.0920	0.0000	96.0103
0.0930	0.0000	95.9833
0.0940	0.0000	95.9570
0.0950	0.0000	95.9317
0.0960	0.0000	95.9071
0.0970	0.0000	95.8834
0.0980	0.0000	95.8605
0.0990	0.0000	95.8384
0.1000	0.0000	95.8172
0.1010	0.0000	95.7968
0.1020	0.0000	95.7772
0.1030	0.0000	95.7585
0.1040	0.0000	95.7406
0.1050	0.0000	95.7236
0.1060	0.0000	95.7073
0.1070	0.0000	95.6919
0.1080	0.0000	95.6774
0.1090	0.0000	95.6636
0.1100	0.0000	95.6507
0.1110	0.0000	95.6387
0.1120	0.0000	95.6274
0.1130	0.0000	95.6170
0.1140	0.0000	95.6074
0.1150	0.0000	95.5987
0.1160	0.0000	95.5908
0.1170	0.0000	95.5837
0.1180	0.0000	95.5775
0.1190	0.0000	95.5721
0.1200	0.0000	95.5675
0.1210	0.0000	95.5637
0.1220	0.0000	95.5608
0.1230	0.0000	95.5587
0.1240	0.0000	95.5575
0.1250	0.0000	95.5571
0.1260	0.0000	95.5575
0.1270	0.0000	95.5587
0.1280	0.0000	95.5608
0.1290	0.0000	95.5637
0.1300	0.0000	95.5675
0.1310	0.0000	95.5721
0.1320	0.0000	95.5775
0.1330	0.0000	95.5837
0.1340	0.0000	95.5908
0.1350	0.0000	95.5987
0.1360	0.0000	95.6074
0.1370	0.0000	95.6170
0.1380	0.0000	95.6274
0.1390	0.0000	95.6387
0.1400	0.0000	95.6507
0.1410	0.0000	95.6636
0.1420	0.0000	95.6774
0.1430	0.0000	95.6919
0.1440	0.0000	95.7073
0.1450	0.0000	95.7236
0.1460	0.0000	95.7406
0.1470	0.0000	95.7585
0.1480	0.0000	95.7772
0.1490	0.0000	95.7968
0.1500	0.0000	95.8172
0.1510	0.0000	95.8384
0.1520	0.0000	95.8605
0.1530	0.0000	95.8834
0.1540	0.0000	95.9071
0.1550	0.0000	95.9317
0.1560	0.0000	95.9570
0.1570	0.0000	95.9833
0.1580	0.0000	96.0103
0.1590	0.0000	96.0382
0.1600	0.0000	96.0669
0.1610	0.0000	96.0965
0.1620	0.0000	96.1268
0.1630	0.0000	96.1581
0.1640	0.0000	96.1901
0.1650	0.0000	96.2230
0.1660	0.0000	96.2567
0.1670	0.0000	96.2912
0.1680	0.0000	96.3266
0.1690	0.0000	96.3628
0.1700	0.0000	96.3999
0.1710	0.0000	96.4377
0.1720	0.0000	96.4764
0.1730	0.0000	96.5160
0.1740	0.0000	96.5563
0.1750	0.0000	96.5976
0.1760	0.0000	96.6396
0.1770	0.0000	96.6825
0.1780	0.0000	96.7262
0.1790	0.0000	96.7707
0.1800	0.0000	96.8160
0.1810	0.0000	96.8622
0.1820	0.0000	96.9093
0.1830	0.0000	96.9571
0.1840	0.0000	97.0058
0.1850	0.0000	97.0554
0.1860	0.0000	97.1057
0.1870	0.0000	97.1569
0.1880	0.0000	97.2089
0.1890	0.0000	97.2618
0.1900	0.0000	97.3155
0.1910	0.0000	97.3700
0.1920	0.0000	97.4253
0.1930	0.0000	97.4815
0.1940	0.0000	97.5385
0.1950	0.0000	97.5964
0.1960	0.0000	97.6551
0.1970	0.0000	97.7146
0.1980	0.0000	97.7749
0.1990	0.0000	97.8361
0.2000	0.0000	97.8981
0.2010	0.0000	97.9610
0.2020	0.0000	98.0247
0.2030	0.0000	98.0892
0.2040	0.0000	98.1545
0.2050	0.0000	98.2207
0.2060	0.0000	98.2877
0.2070	0.0000	98.3555
0.2080	0.0000	98.4242
0.2090	0.0000	98.4937
0.2100	0.0000	98.5640
0.2110	0.0000	98.6352
0.2120	0.0000	98.7072
0.2130	0.0000	98.7800
0.2140	0.0000	98.8537
0.2150	0.0000	98.9282
0.2160	0.0000	99.0035
0.2170	0.0000	99.0797
0.2180	0.0000	99.1567
0.2190	0.0000	99.2345
0.2200	0.0000	99.3132
0.2210	0.0000	99.3927
0.2220	0.0000	99.4730
0.2230	0.0000	99.5541
0.2240	0.0000	99.6361
0.2250	0.0000	99.7190
0.2260	0.0000	99.8026
0.2270	0.0000	99.8871
0.2280	0.0000	99.9724
0.2290	0.0000	100.0586
0.2300	0.0000	100.1455
0.2310	0.0000	100.2334
0.2320	0.0000	100.3220
0.2330	0.0000	100.4115
0.2340	0.0000	100.5018
0.2350	0.0000	100.5929
0.2360	0.0000	100.6849
0.2370	0.0000	100.7777
0.2380	0.0000	100.8714
0.2390	0.0000	100.9658
0.2400	0.0000	101.0612
0.2410	0.0000	101.1573
0.2420	0.0000	101.2543
0.2430	0.0000	101.3521
0.2440	0.0000	101.4507
0.2450	0.0000	101.5502
0.2460	0.0000	101.6505
0.2470	0.0000	101.7516
0.2480	0.0000	101.8536
0.2490	0.0000	101.9564
0.2500	0.0000	102.0600
0.2510	0.0000	102.3508
0.2520	0.0000	102.6381
0.2530	0.0000	102.9221
0.2540	0.0000	103.2026
0.2550	0.0000	103.4797
0.2560	0.0000	103.7534
0.2570	0.0000	104.0236
0.2580	0.0000	104.2905
0.2590	0.0000	104.5539
0.2600	0.0000	104.8139
0.2610	0.0000	105.0705
0.2620	0.0000	105.3236
0.2630	0.0000	105.5734
0.2640	0.0000	105.8197
0.2650	0.0000	106.0626
0.2660	0.0000	106.3021
0.2670	0.0000	106.5381
0.2680	0.0000	106.7708
